<?xml version="1.0" encoding="UTF-8" standalone="no"?><!DOCTYPE svg PUBLIC "-//W3C//DTD SVG 1.1//EN" "http://www.w3.org/Graphics/SVG/1.1/DTD/svg11.dtd"><!-- Generated by graphviz version 2.40.1 (20161225.0304)
 --><!-- Title: G Pages: 1 --><svg xmlns="http://www.w3.org/2000/svg" xmlns:xlink="http://www.w3.org/1999/xlink" width="632pt" height="561pt" viewBox="0.00 0.00 632.00 560.60">
<g id="graph0" class="graph" transform="scale(1 1) rotate(0) translate(4 556.6)">
<title>G</title>
<polygon fill="#ffffff" stroke="transparent" points="-4,4 -4,-556.6 628,-556.6 628,4 -4,4"/>
<g id="clust1" class="cluster">
<title>cluster_token</title>
<polygon fill="none" stroke="#ffffff" points="8,-8 8,-452.2 422,-452.2 422,-8 8,-8"/>
<text text-anchor="middle" x="215" y="-435.6" font-family="Times,serif" font-size="14.00" fill="#000000">Token 合约</text>
</g>
<!-- constructor -->
<g id="node1" class="node">
<title>constructor</title>
<polygon fill="none" stroke="#000000" points="414.4762,-419.2019 335.5238,-419.2019 335.5238,-377.9981 414.4762,-377.9981 414.4762,-419.2019"/>
<text text-anchor="middle" x="375" y="-402.8" font-family="Times,serif" font-size="14.00" fill="#000000">constructor</text>
<text text-anchor="middle" x="375" y="-386" font-family="Times,serif" font-size="14.00" fill="#000000">初始化合约</text>
</g>
<!-- balanceOf -->
<g id="node9" class="node">
<title>balanceOf</title>
<polygon fill="none" stroke="#000000" points="577.0589,-136.0019 488.9411,-136.0019 488.9411,-94.7981 577.0589,-94.7981 577.0589,-136.0019"/>
<text text-anchor="middle" x="533" y="-119.6" font-family="Times,serif" font-size="14.00" fill="#000000">balanceOf</text>
<text text-anchor="middle" x="533" y="-102.8" font-family="Times,serif" font-size="14.00" fill="#000000">账户余额</text>
</g>
<!-- constructor&#45;&gt;balanceOf -->
<g id="edge10" class="edge">
<title>constructor-&gt;balanceOf</title>
<path fill="none" stroke="#000000" d="M414.6369,-389.5125C466.9142,-376.6317 554.475,-351.6495 573,-325 611.1183,-270.1642 575.7163,-188.621 551.4362,-145.1766"/>
<polygon fill="#000000" stroke="#000000" points="554.3243,-143.1779 546.3046,-136.2544 548.2563,-146.6679 554.3243,-143.1779"/>
<text text-anchor="middle" x="606.5" y="-252.8" font-family="Times,serif" font-size="14.00" fill="#000000">初始化</text>
</g>
<!-- transfer -->
<g id="node2" class="node">
<title>transfer</title>
<polygon fill="none" stroke="#000000" points="105.8739,-419.2019 16.1261,-419.2019 16.1261,-377.9981 105.8739,-377.9981 105.8739,-419.2019"/>
<text text-anchor="middle" x="61" y="-402.8" font-family="Times,serif" font-size="14.00" fill="#000000">transfer</text>
<text text-anchor="middle" x="61" y="-386" font-family="Times,serif" font-size="14.00" fill="#000000">转移代币</text>
</g>
<!-- _transfer -->
<g id="node3" class="node">
<title>_transfer</title>
<polygon fill="none" stroke="#000000" points="222.4804,-230.4019 101.5196,-230.4019 101.5196,-189.1981 222.4804,-189.1981 222.4804,-230.4019"/>
<text text-anchor="middle" x="162" y="-214" font-family="Times,serif" font-size="14.00" fill="#000000">_transfer</text>
<text text-anchor="middle" x="162" y="-197.2" font-family="Times,serif" font-size="14.00" fill="#000000">内部转移代币</text>
</g>
<!-- transfer&#45;&gt;_transfer -->
<g id="edge5" class="edge">
<title>transfer-&gt;_transfer</title>
<path fill="none" stroke="#000000" d="M72.1947,-377.6737C90.1396,-344.1292 125.4132,-278.192 146.0087,-239.6926"/>
<polygon fill="#000000" stroke="#000000" points="149.2782,-241.0008 150.9091,-230.5323 143.1059,-237.6989 149.2782,-241.0008"/>
</g>
<!-- Transfer -->
<g id="node6" class="node">
<title>Transfer</title>
<polygon fill="none" stroke="#000000" points="207.2687,-57.4019 116.7313,-57.4019 116.7313,-16.1981 207.2687,-16.1981 207.2687,-57.4019"/>
<text text-anchor="middle" x="162" y="-41" font-family="Times,serif" font-size="14.00" fill="#000000">Transfer</text>
<text text-anchor="middle" x="162" y="-24.2" font-family="Times,serif" font-size="14.00" fill="#000000">转移事件</text>
</g>
<!-- _transfer&#45;&gt;Transfer -->
<g id="edge7" class="edge">
<title>_transfer-&gt;Transfer</title>
<path fill="none" stroke="#000000" d="M162,-188.9322C162,-158.7166 162,-102.5816 162,-67.5983"/>
<polygon fill="#000000" stroke="#000000" points="165.5001,-67.4725 162,-57.4726 158.5001,-67.4726 165.5001,-67.4725"/>
<text text-anchor="middle" x="178.5263" y="-111.2" font-family="Times,serif" font-size="14.00" fill="#000000">触发</text>
</g>
<!-- _transfer&#45;&gt;balanceOf -->
<g id="edge11" class="edge">
<title>_transfer-&gt;balanceOf</title>
<path fill="none" stroke="#000000" d="M222.5291,-191.3529C225.3889,-190.5445 228.2235,-189.7562 231,-189 317.1365,-165.5392 418.0598,-141.6652 478.6897,-127.7089"/>
<polygon fill="#000000" stroke="#000000" points="479.8338,-131.0374 488.797,-125.3884 478.2673,-124.2149 479.8338,-131.0374"/>
<text text-anchor="middle" x="373.5" y="-158.4" font-family="Times,serif" font-size="14.00" fill="#000000">更新</text>
</g>
<!-- approve -->
<g id="node4" class="node">
<title>approve</title>
<polygon fill="none" stroke="#000000" points="317.9804,-419.2019 232.0196,-419.2019 232.0196,-377.9981 317.9804,-377.9981 317.9804,-419.2019"/>
<text text-anchor="middle" x="275" y="-402.8" font-family="Times,serif" font-size="14.00" fill="#000000">approve</text>
<text text-anchor="middle" x="275" y="-386" font-family="Times,serif" font-size="14.00" fill="#000000">批准转账</text>
</g>
<!-- Approve -->
<g id="node7" class="node">
<title>Approve</title>
<polygon fill="none" stroke="#000000" points="309.7702,-230.4019 240.2298,-230.4019 240.2298,-189.1981 309.7702,-189.1981 309.7702,-230.4019"/>
<text text-anchor="middle" x="275" y="-214" font-family="Times,serif" font-size="14.00" fill="#000000">Approve</text>
<text text-anchor="middle" x="275" y="-197.2" font-family="Times,serif" font-size="14.00" fill="#000000">批准事件</text>
</g>
<!-- approve&#45;&gt;Approve -->
<g id="edge8" class="edge">
<title>approve-&gt;Approve</title>
<path fill="none" stroke="#000000" d="M275,-377.6737C275,-344.4135 275,-279.3072 275,-240.6773"/>
<polygon fill="#000000" stroke="#000000" points="278.5001,-240.5322 275,-230.5323 271.5001,-240.5323 278.5001,-240.5322"/>
<text text-anchor="middle" x="291.5263" y="-300" font-family="Times,serif" font-size="14.00" fill="#000000">触发</text>
</g>
<!-- allowance -->
<g id="node10" class="node">
<title>allowance</title>
<polygon fill="none" stroke="#000000" points="563.8017,-324.8019 430.1983,-324.8019 430.1983,-283.5981 563.8017,-283.5981 563.8017,-324.8019"/>
<text text-anchor="middle" x="497" y="-308.4" font-family="Times,serif" font-size="14.00" fill="#000000">allowance</text>
<text text-anchor="middle" x="497" y="-291.6" font-family="Times,serif" font-size="14.00" fill="#000000">批准的转账额度</text>
</g>
<!-- approve&#45;&gt;allowance -->
<g id="edge12" class="edge">
<title>approve-&gt;allowance</title>
<path fill="none" stroke="#000000" d="M318.0671,-380.2868C352.4743,-365.656 401.0313,-345.0083 438.8823,-328.9131"/>
<polygon fill="#000000" stroke="#000000" points="440.4268,-332.0597 448.2597,-324.9256 437.6875,-325.6179 440.4268,-332.0597"/>
<text text-anchor="middle" x="409.5" y="-347.2" font-family="Times,serif" font-size="14.00" fill="#000000">更新</text>
</g>
<!-- transferFrom -->
<g id="node5" class="node">
<title>transferFrom</title>
<polygon fill="none" stroke="#000000" points="214.2662,-419.2019 123.7338,-419.2019 123.7338,-377.9981 214.2662,-377.9981 214.2662,-419.2019"/>
<text text-anchor="middle" x="169" y="-402.8" font-family="Times,serif" font-size="14.00" fill="#000000">transferFrom</text>
<text text-anchor="middle" x="169" y="-386" font-family="Times,serif" font-size="14.00" fill="#000000">代理转账</text>
</g>
<!-- transferFrom&#45;&gt;_transfer -->
<g id="edge6" class="edge">
<title>transferFrom-&gt;_transfer</title>
<path fill="none" stroke="#000000" d="M168.2241,-377.6737C166.991,-344.4135 164.5771,-279.3072 163.1448,-240.6773"/>
<polygon fill="#000000" stroke="#000000" points="166.6369,-240.3957 162.7687,-230.5323 159.6417,-240.6551 166.6369,-240.3957"/>
</g>
<!-- transferFrom&#45;&gt;Approve -->
<g id="edge9" class="edge">
<title>transferFrom-&gt;Approve</title>
<path fill="none" stroke="#000000" d="M180.7489,-377.6737C199.5821,-344.1292 236.602,-278.192 258.2171,-239.6926"/>
<polygon fill="#000000" stroke="#000000" points="261.5163,-240.9654 263.3601,-230.5323 255.4125,-237.5385 261.5163,-240.9654"/>
<text text-anchor="middle" x="248.5263" y="-300" font-family="Times,serif" font-size="14.00" fill="#000000">触发</text>
</g>
<!-- transferFrom&#45;&gt;allowance -->
<g id="edge13" class="edge">
<title>transferFrom-&gt;allowance</title>
<path fill="none" stroke="#000000" d="M214.2614,-380.8109C217.2082,-379.7628 220.1397,-378.7499 223,-377.8 277.323,-359.7594 291.5224,-357.0958 347,-343 378.7663,-334.9288 389.2803,-334.1492 420.3102,-326.4173"/>
<polygon fill="#000000" stroke="#000000" points="421.3142,-329.7734 430.1392,-323.9107 419.5844,-322.9904 421.3142,-329.7734"/>
<text text-anchor="middle" x="357.5" y="-347.2" font-family="Times,serif" font-size="14.00" fill="#000000">更新</text>
</g>
<!-- EVM -->
<g id="node8" class="node">
<title>EVM</title>
<polygon fill="none" stroke="#000000" points="271.3157,-552.4014 144.6843,-552.4014 144.6843,-495.1986 271.3157,-495.1986 271.3157,-552.4014"/>
<text text-anchor="middle" x="208" y="-536" font-family="Times,serif" font-size="14.00" fill="#000000">EVM 状态机</text>
<text text-anchor="middle" x="208" y="-503.2" font-family="Times,serif" font-size="14.00" fill="#000000">处理交易和合约执行</text>
</g>
<!-- EVM&#45;&gt;constructor -->
<g id="edge1" class="edge">
<title>EVM-&gt;constructor</title>
<path fill="none" stroke="#000000" d="M263.3025,-495.1243C284.1911,-483.1377 307.5846,-468.2588 327,-452.2 335.9909,-444.7635 344.811,-435.6179 352.388,-427.0006"/>
<polygon fill="#000000" stroke="#000000" points="355.1326,-429.1762 358.9662,-419.2993 349.81,-424.6298 355.1326,-429.1762"/>
<text text-anchor="middle" x="329.7763" y="-464.4" font-family="Times,serif" font-size="14.00" fill="#000000">调用</text>
</g>
<!-- EVM&#45;&gt;transfer -->
<g id="edge2" class="edge">
<title>EVM-&gt;transfer</title>
<path fill="none" stroke="#000000" d="M168.2148,-494.9016C151.4102,-482.2564 131.8675,-466.961 115,-452.2 105.851,-444.1935 96.3005,-435.0158 87.82,-426.5439"/>
<polygon fill="#000000" stroke="#000000" points="90.2013,-423.9744 80.6797,-419.3279 85.2254,-428.898 90.2013,-423.9744"/>
<text text-anchor="middle" x="158.7763" y="-464.4" font-family="Times,serif" font-size="14.00" fill="#000000">调用</text>
</g>
<!-- EVM&#45;&gt;approve -->
<g id="edge3" class="edge">
<title>EVM-&gt;approve</title>
<path fill="none" stroke="#000000" d="M223.3712,-495.0766C234.0438,-475.133 248.2295,-448.6248 259.0304,-428.4417"/>
<polygon fill="#000000" stroke="#000000" points="262.2475,-429.8479 263.8799,-419.3796 256.0756,-426.5451 262.2475,-429.8479"/>
<text text-anchor="middle" x="255.7763" y="-464.4" font-family="Times,serif" font-size="14.00" fill="#000000">调用</text>
</g>
<!-- EVM&#45;&gt;transferFrom -->
<g id="edge4" class="edge">
<title>EVM-&gt;transferFrom</title>
<path fill="none" stroke="#000000" d="M199.0526,-495.0766C192.8964,-475.3135 184.7321,-449.104 178.4669,-428.9912"/>
<polygon fill="#000000" stroke="#000000" points="181.7886,-427.8862 175.4729,-419.3796 175.1054,-429.9681 181.7886,-427.8862"/>
<text text-anchor="middle" x="207.7763" y="-464.4" font-family="Times,serif" font-size="14.00" fill="#000000">调用</text>
</g>
</g>
</svg>