<?xml version="1.0" encoding="UTF-8" standalone="no"?><!DOCTYPE svg PUBLIC "-//W3C//DTD SVG 1.1//EN" "http://www.w3.org/Graphics/SVG/1.1/DTD/svg11.dtd"><!-- Generated by graphviz version 2.40.1 (20161225.0304)
 --><!-- Title: G Pages: 1 --><svg xmlns="http://www.w3.org/2000/svg" xmlns:xlink="http://www.w3.org/1999/xlink" width="969pt" height="504pt" viewBox="0.00 0.00 968.69 504.20">
<g id="graph0" class="graph" transform="scale(1 1) rotate(0) translate(4 500.2)">
<title>G</title>
<polygon fill="#ffffff" stroke="transparent" points="-4,4 -4,-500.2 964.6882,-500.2 964.6882,4 -4,4"/>
<g id="clust1" class="cluster">
<title>cluster_exchange</title>
<polygon fill="none" stroke="#ffffff" points="8,-8 8,-395.8 746,-395.8 746,-8 8,-8"/>
<text text-anchor="middle" x="377" y="-379.2" font-family="Times,serif" font-size="14.00" fill="#000000">Exchange 合约</text>
</g>
<!-- EVM -->
<g id="node1" class="node">
<title>EVM</title>
<polygon fill="none" stroke="#000000" points="496.3157,-496.0014 369.6843,-496.0014 369.6843,-438.7986 496.3157,-438.7986 496.3157,-496.0014"/>
<text text-anchor="middle" x="433" y="-479.6" font-family="Times,serif" font-size="14.00" fill="#000000">EVM 状态机</text>
<text text-anchor="middle" x="433" y="-446.8" font-family="Times,serif" font-size="14.00" fill="#000000">处理交易和合约执行</text>
</g>
<!-- constructor -->
<g id="node2" class="node">
<title>constructor</title>
<polygon fill="none" stroke="#000000" points="510.4762,-362.8019 431.5238,-362.8019 431.5238,-321.5981 510.4762,-321.5981 510.4762,-362.8019"/>
<text text-anchor="middle" x="471" y="-346.4" font-family="Times,serif" font-size="14.00" fill="#000000">constructor</text>
<text text-anchor="middle" x="471" y="-329.6" font-family="Times,serif" font-size="14.00" fill="#000000">初始化合约</text>
</g>
<!-- EVM&#45;&gt;constructor -->
<g id="edge1" class="edge">
<title>EVM-&gt;constructor</title>
<path fill="none" stroke="#000000" d="M441.718,-438.6766C447.7164,-418.9135 455.6713,-392.704 461.7758,-372.5912"/>
<polygon fill="#000000" stroke="#000000" points="465.1378,-373.5651 464.6931,-362.9796 458.4396,-371.532 465.1378,-373.5651"/>
<text text-anchor="middle" x="466.7763" y="-408" font-family="Times,serif" font-size="14.00" fill="#000000">调用</text>
</g>
<!-- depositEther -->
<g id="node3" class="node">
<title>depositEther</title>
<polygon fill="none" stroke="#000000" points="840.2591,-268.4019 753.7409,-268.4019 753.7409,-227.1981 840.2591,-227.1981 840.2591,-268.4019"/>
<text text-anchor="middle" x="797" y="-252" font-family="Times,serif" font-size="14.00" fill="#000000">depositEther</text>
<text text-anchor="middle" x="797" y="-235.2" font-family="Times,serif" font-size="14.00" fill="#000000">存入以太币</text>
</g>
<!-- EVM&#45;&gt;depositEther -->
<g id="edge2" class="edge">
<title>EVM-&gt;depositEther</title>
<path fill="none" stroke="#000000" d="M496.3211,-460.7657C578.0479,-450.9456 714.0396,-429.9326 750,-395.8 782.3764,-365.0692 792.5332,-312.1763 795.6689,-278.6462"/>
<polygon fill="#000000" stroke="#000000" points="799.1726,-278.7344 796.4596,-268.4928 792.1937,-278.1909 799.1726,-278.7344"/>
<text text-anchor="middle" x="802.7763" y="-338" font-family="Times,serif" font-size="14.00" fill="#000000">调用</text>
</g>
<!-- withdrawEther -->
<g id="node4" class="node">
<title>withdrawEther</title>
<polygon fill="none" stroke="#000000" points="627.6882,-362.8019 528.3118,-362.8019 528.3118,-321.5981 627.6882,-321.5981 627.6882,-362.8019"/>
<text text-anchor="middle" x="578" y="-346.4" font-family="Times,serif" font-size="14.00" fill="#000000">withdrawEther</text>
<text text-anchor="middle" x="578" y="-329.6" font-family="Times,serif" font-size="14.00" fill="#000000">取出以太币</text>
</g>
<!-- EVM&#45;&gt;withdrawEther -->
<g id="edge3" class="edge">
<title>EVM-&gt;withdrawEther</title>
<path fill="none" stroke="#000000" d="M468.4366,-438.4774C484.0692,-425.5698 502.5824,-410.0801 519,-395.8 528.5443,-387.4983 538.7948,-378.2916 548.0303,-369.8844"/>
<polygon fill="#000000" stroke="#000000" points="550.4906,-372.3775 555.5116,-363.0479 545.7685,-367.21 550.4906,-372.3775"/>
<text text-anchor="middle" x="521.7763" y="-408" font-family="Times,serif" font-size="14.00" fill="#000000">调用</text>
</g>
<!-- depositToken -->
<g id="node5" class="node">
<title>depositToken</title>
<polygon fill="none" stroke="#000000" points="738.2078,-362.8019 645.7922,-362.8019 645.7922,-321.5981 738.2078,-321.5981 738.2078,-362.8019"/>
<text text-anchor="middle" x="692" y="-346.4" font-family="Times,serif" font-size="14.00" fill="#000000">depositToken</text>
<text text-anchor="middle" x="692" y="-329.6" font-family="Times,serif" font-size="14.00" fill="#000000">存入代币</text>
</g>
<!-- EVM&#45;&gt;depositToken -->
<g id="edge4" class="edge">
<title>EVM-&gt;depositToken</title>
<path fill="none" stroke="#000000" d="M496.3902,-452.81C538.3494,-441.3625 593.4561,-422.7991 637,-395.8 648.066,-388.9386 658.6928,-379.5122 667.6053,-370.4762"/>
<polygon fill="#000000" stroke="#000000" points="670.315,-372.7054 674.6605,-363.0427 665.2377,-367.8865 670.315,-372.7054"/>
<text text-anchor="middle" x="635.7763" y="-408" font-family="Times,serif" font-size="14.00" fill="#000000">调用</text>
</g>
<!-- withdrawToken -->
<g id="node6" class="node">
<title>withdrawToken</title>
<polygon fill="none" stroke="#000000" points="320.1374,-362.8019 215.8626,-362.8019 215.8626,-321.5981 320.1374,-321.5981 320.1374,-362.8019"/>
<text text-anchor="middle" x="268" y="-346.4" font-family="Times,serif" font-size="14.00" fill="#000000">withdrawToken</text>
<text text-anchor="middle" x="268" y="-329.6" font-family="Times,serif" font-size="14.00" fill="#000000">取出代币</text>
</g>
<!-- EVM&#45;&gt;withdrawToken -->
<g id="edge5" class="edge">
<title>EVM-&gt;withdrawToken</title>
<path fill="none" stroke="#000000" d="M388.9188,-438.7319C370.0958,-426.0636 348.1069,-410.6881 329,-395.8 318.5581,-387.6637 307.5695,-378.2849 297.8401,-369.6697"/>
<polygon fill="#000000" stroke="#000000" points="300.1285,-367.0208 290.3417,-362.9626 295.4617,-372.2382 300.1285,-367.0208"/>
<text text-anchor="middle" x="376.7763" y="-408" font-family="Times,serif" font-size="14.00" fill="#000000">调用</text>
</g>
<!-- makeOrder -->
<g id="node7" class="node">
<title>makeOrder</title>
<polygon fill="none" stroke="#000000" points="94.4622,-362.8019 15.5378,-362.8019 15.5378,-321.5981 94.4622,-321.5981 94.4622,-362.8019"/>
<text text-anchor="middle" x="55" y="-346.4" font-family="Times,serif" font-size="14.00" fill="#000000">makeOrder</text>
<text text-anchor="middle" x="55" y="-329.6" font-family="Times,serif" font-size="14.00" fill="#000000">创建订单</text>
</g>
<!-- EVM&#45;&gt;makeOrder -->
<g id="edge6" class="edge">
<title>EVM-&gt;makeOrder</title>
<path fill="none" stroke="#000000" d="M369.4916,-458.752C286.8057,-446.6201 147.6829,-422.9647 104,-395.8 93.4832,-389.26 83.823,-379.8476 75.9104,-370.7299"/>
<polygon fill="#000000" stroke="#000000" points="78.4924,-368.3597 69.4291,-362.8728 73.0925,-372.8141 78.4924,-368.3597"/>
<text text-anchor="middle" x="185.7763" y="-408" font-family="Times,serif" font-size="14.00" fill="#000000">调用</text>
</g>
<!-- cancelOrder -->
<g id="node8" class="node">
<title>cancelOrder</title>
<polygon fill="none" stroke="#000000" points="197.3923,-362.8019 112.6077,-362.8019 112.6077,-321.5981 197.3923,-321.5981 197.3923,-362.8019"/>
<text text-anchor="middle" x="155" y="-346.4" font-family="Times,serif" font-size="14.00" fill="#000000">cancelOrder</text>
<text text-anchor="middle" x="155" y="-329.6" font-family="Times,serif" font-size="14.00" fill="#000000">取消订单</text>
</g>
<!-- EVM&#45;&gt;cancelOrder -->
<g id="edge7" class="edge">
<title>EVM-&gt;cancelOrder</title>
<path fill="none" stroke="#000000" d="M369.5307,-456.0634C322.1664,-445.5929 257.2378,-426.856 207,-395.8 196.1442,-389.0892 185.9485,-379.6142 177.5102,-370.493"/>
<polygon fill="#000000" stroke="#000000" points="180.1096,-368.1489 170.8596,-362.9828 174.869,-372.7897 180.1096,-368.1489"/>
<text text-anchor="middle" x="266.7763" y="-408" font-family="Times,serif" font-size="14.00" fill="#000000">调用</text>
</g>
<!-- fillOrder -->
<g id="node9" class="node">
<title>fillOrder</title>
<polygon fill="none" stroke="#000000" points="413.6179,-362.8019 338.3821,-362.8019 338.3821,-321.5981 413.6179,-321.5981 413.6179,-362.8019"/>
<text text-anchor="middle" x="376" y="-346.4" font-family="Times,serif" font-size="14.00" fill="#000000">fillOrder</text>
<text text-anchor="middle" x="376" y="-329.6" font-family="Times,serif" font-size="14.00" fill="#000000">完成订单</text>
</g>
<!-- EVM&#45;&gt;fillOrder -->
<g id="edge8" class="edge">
<title>EVM-&gt;fillOrder</title>
<path fill="none" stroke="#000000" d="M419.923,-438.6766C410.8844,-418.8232 398.884,-392.4645 389.711,-372.3161"/>
<polygon fill="#000000" stroke="#000000" points="392.7893,-370.6305 385.4604,-362.9796 386.4185,-373.531 392.7893,-370.6305"/>
<text text-anchor="middle" x="425.7763" y="-408" font-family="Times,serif" font-size="14.00" fill="#000000">调用</text>
</g>
<!-- Deposit -->
<g id="node11" class="node">
<title>Deposit</title>
<polygon fill="none" stroke="#000000" points="960.8774,-268.4019 891.1226,-268.4019 891.1226,-227.1981 960.8774,-227.1981 960.8774,-268.4019"/>
<text text-anchor="middle" x="926" y="-252" font-family="Times,serif" font-size="14.00" fill="#000000">Deposit</text>
<text text-anchor="middle" x="926" y="-235.2" font-family="Times,serif" font-size="14.00" fill="#000000">存款事件</text>
</g>
<!-- depositEther&#45;&gt;Deposit -->
<g id="edge10" class="edge">
<title>depositEther-&gt;Deposit</title>
<path fill="none" stroke="#000000" d="M840.314,-247.8C856.8561,-247.8 875.4896,-247.8 891.1452,-247.8"/>
<text text-anchor="middle" x="865.8456" y="-255" font-family="Times,serif" font-size="14.00" fill="#000000">触发</text>
</g>
<!-- Withdraw -->
<g id="node12" class="node">
<title>Withdraw</title>
<polygon fill="none" stroke="#000000" points="319.9776,-189.8019 248.0224,-189.8019 248.0224,-148.5981 319.9776,-148.5981 319.9776,-189.8019"/>
<text text-anchor="middle" x="284" y="-173.4" font-family="Times,serif" font-size="14.00" fill="#000000">Withdraw</text>
<text text-anchor="middle" x="284" y="-156.6" font-family="Times,serif" font-size="14.00" fill="#000000">取款事件</text>
</g>
<!-- withdrawEther&#45;&gt;Withdraw -->
<g id="edge11" class="edge">
<title>withdrawEther-&gt;Withdraw</title>
<path fill="none" stroke="#000000" d="M542.8288,-321.504C486.2824,-288.2301 375.7838,-223.2088 319.2117,-189.9198"/>
<text text-anchor="middle" x="467.5263" y="-243.6" font-family="Times,serif" font-size="14.00" fill="#000000">触发</text>
</g>
<!-- depositToken&#45;&gt;Deposit -->
<g id="edge12" class="edge">
<title>depositToken-&gt;Deposit</title>
<path fill="none" stroke="#000000" d="M738.2309,-323.5496C783.2501,-305.388 850.6608,-278.1932 891.2796,-261.8069"/>
<text text-anchor="middle" x="839.5263" y="-290.8" font-family="Times,serif" font-size="14.00" fill="#000000">触发</text>
</g>
<!-- withdrawToken&#45;&gt;Withdraw -->
<g id="edge13" class="edge">
<title>withdrawToken-&gt;Withdraw</title>
<path fill="none" stroke="#000000" d="M269.93,-321.3322C273.0136,-287.9909 279.0159,-223.0901 282.0881,-189.8726"/>
<text text-anchor="middle" x="294.5263" y="-243.6" font-family="Times,serif" font-size="14.00" fill="#000000">触发</text>
</g>
<!-- Order -->
<g id="node13" class="node">
<title>Order</title>
<polygon fill="none" stroke="#000000" points="95.8905,-189.8019 16.1095,-189.8019 16.1095,-148.5981 95.8905,-148.5981 95.8905,-189.8019"/>
<text text-anchor="middle" x="56" y="-173.4" font-family="Times,serif" font-size="14.00" fill="#000000">Order</text>
<text text-anchor="middle" x="56" y="-156.6" font-family="Times,serif" font-size="14.00" fill="#000000">订单事件</text>
</g>
<!-- makeOrder&#45;&gt;Order -->
<g id="edge14" class="edge">
<title>makeOrder-&gt;Order</title>
<path fill="none" stroke="#000000" d="M55.1206,-321.3322C55.3133,-287.9909 55.6885,-223.0901 55.8805,-189.8726"/>
<text text-anchor="middle" x="72.5263" y="-243.6" font-family="Times,serif" font-size="14.00" fill="#000000">触发</text>
</g>
<!-- Cancel -->
<g id="node14" class="node">
<title>Cancel</title>
<polygon fill="none" stroke="#000000" points="189.8959,-189.8019 120.1041,-189.8019 120.1041,-148.5981 189.8959,-148.5981 189.8959,-189.8019"/>
<text text-anchor="middle" x="155" y="-173.4" font-family="Times,serif" font-size="14.00" fill="#000000">Cancel</text>
<text text-anchor="middle" x="155" y="-156.6" font-family="Times,serif" font-size="14.00" fill="#000000">取消事件</text>
</g>
<!-- cancelOrder&#45;&gt;Cancel -->
<g id="edge15" class="edge">
<title>cancelOrder-&gt;Cancel</title>
<path fill="none" stroke="#000000" d="M155,-321.3322C155,-287.9909 155,-223.0901 155,-189.8726"/>
<text text-anchor="middle" x="171.5263" y="-243.6" font-family="Times,serif" font-size="14.00" fill="#000000">触发</text>
</g>
<!-- _trade -->
<g id="node10" class="node">
<title>_trade</title>
<polygon fill="none" stroke="#000000" points="423.7649,-189.8019 354.2351,-189.8019 354.2351,-148.5981 423.7649,-148.5981 423.7649,-189.8019"/>
<text text-anchor="middle" x="389" y="-173.4" font-family="Times,serif" font-size="14.00" fill="#000000">_trade</text>
<text text-anchor="middle" x="389" y="-156.6" font-family="Times,serif" font-size="14.00" fill="#000000">执行交易</text>
</g>
<!-- fillOrder&#45;&gt;_trade -->
<g id="edge9" class="edge">
<title>fillOrder-&gt;_trade</title>
<path fill="none" stroke="#000000" d="M377.5681,-321.3322C379.8386,-291.1166 384.0569,-234.9816 386.6857,-199.9983"/>
<polygon fill="#000000" stroke="#000000" points="390.1873,-200.1067 387.4466,-189.8726 383.207,-199.5821 390.1873,-200.1067"/>
</g>
<!-- Trade -->
<g id="node15" class="node">
<title>Trade</title>
<polygon fill="none" stroke="#000000" points="423.1075,-57.4019 354.8925,-57.4019 354.8925,-16.1981 423.1075,-16.1981 423.1075,-57.4019"/>
<text text-anchor="middle" x="389" y="-41" font-family="Times,serif" font-size="14.00" fill="#000000">Trade</text>
<text text-anchor="middle" x="389" y="-24.2" font-family="Times,serif" font-size="14.00" fill="#000000">交易事件</text>
</g>
<!-- _trade&#45;&gt;Trade -->
<g id="edge16" class="edge">
<title>_trade-&gt;Trade</title>
<path fill="none" stroke="#000000" d="M389,-148.5125C389,-123.7845 389,-82.6355 389,-57.7792"/>
<text text-anchor="middle" x="405.5263" y="-98.8" font-family="Times,serif" font-size="14.00" fill="#000000">触发</text>
</g>
</g>
</svg>